# Blender v2.63 (sub 0) OBJ File: 'wcrol.blend'
# www.blender.org
v 0.163224 -0.450251 -0.564238
v 0.167857 0.373629 -0.582923
v 0.292876 0.373629 -0.543893
v 0.283720 -0.450251 -0.524662
v 0.390067 -0.450251 -0.454554
v 0.402047 0.373629 -0.469603
v 0.498915 0.373629 -0.379297
v 0.482238 -0.450251 -0.366023
v 0.548040 -0.450251 -0.256561
v 0.565348 0.373629 -0.264967
v 0.613644 0.373629 -0.141415
v 0.592901 -0.450184 -0.136706
v 0.609248 -0.452120 -0.006835
v 0.627258 0.377972 -0.007644
v 0.616556 0.377693 0.104232
v 0.604934 -0.450272 0.105201
v 0.256094 -0.451571 0.038784
v 0.246843 -0.451571 0.065001
v 0.236601 0.375784 0.062443
v 0.244379 0.375784 0.036918
v 0.389698 -0.450252 0.437448
v 0.401888 0.373629 0.452539
v 0.292241 0.373629 0.526588
v 0.282989 -0.450252 0.507385
v 0.161339 -0.450252 0.547218
v 0.165622 0.373629 0.565983
v 0.034448 0.373629 0.585428
v 0.034448 -0.450252 0.564107
v -0.092443 -0.450252 0.547218
v -0.096726 0.373629 0.565983
v -0.223345 0.373629 0.526588
v -0.214095 -0.450252 0.507379
v -0.321091 -0.450252 0.437107
v -0.333092 0.373629 0.452155
v -0.430079 0.373629 0.361723
v -0.413410 -0.450252 0.348430
v -0.479321 -0.450251 0.238693
v -0.496662 0.373629 0.247044
v -0.544808 0.373629 0.123487
v -0.524022 -0.450251 0.118742
v -0.535793 -0.450251 -0.008725
v -0.555040 0.373629 -0.008725
v -0.544808 0.373629 -0.140937
v -0.524022 -0.450251 -0.136192
v -0.479321 -0.450251 -0.256144
v -0.496662 0.373629 -0.264494
v -0.430079 0.373629 -0.379173
v -0.413410 -0.450251 -0.365880
v 0.173744 -0.449788 -0.176645
v 0.209085 -0.449788 -0.143206
v 0.200506 0.371484 -0.136353
v 0.166616 0.371484 -0.167714
v -0.096660 0.373629 -0.583418
v -0.092354 -0.450251 -0.564649
v -0.214093 -0.450251 -0.524829
v -0.223345 0.373629 -0.544039
v -0.321091 -0.450251 -0.454558
v -0.333091 0.373629 -0.469605
v 0.087576 -0.449788 -0.218331
v 0.133458 -0.449788 -0.203631
v 0.128650 0.371484 -0.193751
v 0.085065 0.371484 -0.207187
v 0.233811 -0.449788 -0.101373
v 0.251211 -0.449789 -0.055880
v 0.240511 0.371484 -0.053400
v 0.223516 0.371484 -0.096419
v 0.255582 -0.449654 -0.007871
v 0.244045 0.371484 -0.007835
v 0.229176 -0.449654 0.095522
v 0.208007 -0.449789 0.130848
v 0.199768 0.371484 0.123830
v 0.219865 0.371484 0.091381
v 0.173644 -0.449789 0.162540
v 0.133201 -0.449789 0.189412
v 0.128439 0.371484 0.179520
v 0.166546 0.371484 0.153555
v 0.086793 -0.449789 0.204231
v 0.038549 -0.449789 0.211015
v 0.038549 0.371484 0.200037
v 0.084251 0.371484 0.193094
v -0.009695 -0.449789 0.204231
v -0.056105 -0.449789 0.189410
v -0.051342 0.371484 0.179520
v -0.007153 0.371484 0.193094
v -0.096628 -0.449789 0.162366
v -0.132011 -0.449789 0.128877
v -0.123428 0.371484 0.122033
v -0.089506 0.371484 0.153436
v -0.156787 -0.449789 0.086929
v -0.174136 -0.449789 0.041404
v -0.163433 0.371484 0.038962
v -0.146495 0.371484 0.081973
v -0.178257 -0.449789 -0.007140
v -0.174136 -0.449789 -0.055684
v -0.163433 0.371484 -0.053241
v -0.166834 0.371484 -0.007140
v -0.156787 -0.449788 -0.101208
v -0.132011 -0.449788 -0.143156
v -0.123428 0.371484 -0.136312
v -0.146495 0.371484 -0.096252
v -0.009674 -0.449788 -0.218505
v 0.038804 -0.449788 -0.225236
v 0.038760 0.371484 -0.214268
v -0.007139 0.371484 -0.207370
v -0.096628 -0.449788 -0.176646
v -0.056104 -0.449788 -0.203690
v -0.051342 0.371484 -0.193799
v -0.089505 0.371484 -0.167715
v 0.035083 0.373629 -0.602733
v 0.497547 0.373629 0.366139
v 0.590476 -0.450294 0.168537
v 0.674172 0.376496 0.448253
v 0.605736 0.377672 0.168861
v 0.670675 -0.450560 0.442639
v 1.234914 0.364772 1.087112
v 1.175700 0.371888 0.881467
v 1.174039 -0.448880 0.890583
v 1.233179 -0.446363 1.082139
v 0.989223 0.372007 0.741339
v 0.775141 0.372106 0.628193
v 0.778196 -0.448470 0.614478
v 0.989892 -0.448645 0.739087
v 0.540240 -0.452120 0.259584
v 0.559949 0.377972 0.271361
v 0.479279 -0.450184 0.352033
v 0.686954 -0.450560 0.423971
v 0.689922 0.376496 0.424979
v 0.788227 0.372122 0.607967
v 0.790459 -0.448457 0.597788
v 1.227357 -0.443723 1.225302
v 1.227604 0.360310 1.243441
v 1.206843 0.360345 1.243928
v 1.211311 -0.443695 1.225678
v 1.253353 0.364772 1.072425
v 1.194467 0.371888 0.866518
v 0.997544 -0.448617 0.719897
v 1.190191 -0.448880 0.877712
v 1.248833 -0.446363 1.069669
v 0.997958 0.372039 0.718989
v 0.035178 -0.450251 -0.581391
vt 0.228616 0.254894
vt 0.004822 0.246196
vt 0.006253 0.210632
vt 0.230014 0.220455
vt 0.231656 0.185877
vt 0.007968 0.174787
vt 0.009815 0.138844
vt 0.233451 0.151192
vt 0.235482 0.116543
vt 0.011932 0.102971
vt 0.014182 0.066990
vt 0.237647 0.081831
vt 0.240619 0.046379
vt 0.015539 0.030455
vt 0.017856 0.000000
vt 0.242323 0.015953
vt 0.559462 0.944475
vt 0.551907 0.944371
vt 0.554728 0.719524
vt 0.561978 0.719620
vt 0.235984 0.881177
vt 0.012450 0.895096
vt 0.010287 0.859203
vt 0.233910 0.846565
vt 0.232067 0.811826
vt 0.008390 0.823215
vt 0.006622 0.787220
vt 0.230372 0.777079
vt 0.228916 0.742320
vt 0.005127 0.751212
vt 0.003760 0.715200
vt 0.227610 0.707556
vt 0.226542 0.672784
vt 0.002667 0.679178
vt 0.001703 0.643152
vt 0.225623 0.638007
vt 0.224943 0.603225
vt 0.001012 0.607120
vt 0.000449 0.571087
vt 0.224413 0.568440
vt 0.224121 0.533653
vt 0.000160 0.535049
vt 0.000000 0.499011
vt 0.223979 0.498864
vt 0.224075 0.464075
vt 0.000113 0.462972
vt 0.000355 0.426935
vt 0.224321 0.429288
vt 0.624912 0.944250
vt 0.611689 0.944277
vt 0.611646 0.721064
vt 0.624194 0.721037
vt 0.002433 0.318825
vt 0.226314 0.324921
vt 0.225440 0.359719
vt 0.001515 0.354867
vt 0.224806 0.394502
vt 0.000871 0.390900
vt 0.651182 0.944087
vt 0.638089 0.944193
vt 0.636704 0.720984
vt 0.649098 0.720882
vt 0.598483 0.944255
vt 0.585247 0.944202
vt 0.586551 0.720993
vt 0.599120 0.721042
vt 0.572146 0.944065
vt 0.574130 0.720896
vt 0.913327 0.933742
vt 0.902163 0.934546
vt 0.887329 0.711823
vt 0.897677 0.711113
vt 0.889485 0.935370
vt 0.876315 0.936197
vt 0.862732 0.713394
vt 0.875239 0.712606
vt 0.863098 0.936978
vt 0.849879 0.937727
vt 0.837649 0.714846
vt 0.850192 0.714133
vt 0.836657 0.938428
vt 0.823433 0.939098
vt 0.812556 0.716147
vt 0.825103 0.715509
vt 0.810208 0.939718
vt 0.796981 0.940307
vt 0.787457 0.717295
vt 0.800007 0.716734
vt 0.783751 0.940847
vt 0.770521 0.941356
vt 0.762351 0.718291
vt 0.774904 0.717806
vt 0.757289 0.941816
vt 0.744055 0.942245
vt 0.737238 0.719135
vt 0.749795 0.718726
vt 0.730821 0.942624
vt 0.717585 0.942972
vt 0.712123 0.719825
vt 0.724681 0.719493
vt 0.677868 0.943758
vt 0.664568 0.943947
vt 0.661828 0.720750
vt 0.674440 0.720570
vt 0.704349 0.943272
vt 0.691111 0.943540
vt 0.687005 0.720364
vt 0.699564 0.720108
vt 0.823090 0.550931
vt 0.813090 0.646827
vt 0.778890 0.640456
vt 0.810056 0.548603
vt 0.643991 0.230449
vt 0.569771 0.302907
vt 0.546926 0.275035
vt 0.635992 0.220761
vt 0.877702 0.459715
vt 0.958199 0.407189
vt 0.973938 0.433285
vt 0.884787 0.470244
vt 0.724610 0.153231
vt 0.801157 0.081279
vt 0.824018 0.109159
vt 0.732612 0.162921
vt 0.679250 0.136248
vt 0.670966 0.032534
vt 0.706849 0.032000
vt 0.691759 0.136017
vt 0.808139 0.436972
vt 0.773718 0.347110
vt 0.806994 0.338123
vt 0.820755 0.433466
vt 0.779260 0.524605
vt 0.697806 0.577585
vt 0.681464 0.546874
vt 0.772954 0.512963
vt 0.689353 0.247428
vt 0.699967 0.351641
vt 0.663933 0.352123
vt 0.676792 0.247641
vt 0.884509 0.510650
vt 0.974599 0.540863
vt 0.960793 0.572669
vt 0.879331 0.522787
vt 0.637773 0.160953
vt 0.550760 0.103698
vt 0.573872 0.075368
vt 0.645386 0.151140
vt 0.772514 0.473922
vt 0.680064 0.444279
vt 0.693886 0.412354
vt 0.777685 0.461733
vt 0.703659 0.139485
vt 0.741056 0.041837
vt 0.774149 0.057196
vt 0.715226 0.144803
vt 0.730911 0.222549
vt 0.819247 0.280237
vt 0.797156 0.308710
vt 0.723246 0.232503
vt 0.849083 0.547472
vt 0.881456 0.637727
vt 0.847878 0.646827
vt 0.836329 0.551029
vt 0.631226 0.209171
vt 0.533114 0.241837
vt 0.524323 0.207927
vt 0.628131 0.197458
vt 0.858807 0.441723
vt 0.907034 0.359591
vt 0.935106 0.380124
vt 0.869547 0.449461
vt 0.737372 0.174546
vt 0.837793 0.142460
vt 0.846280 0.177485
vt 0.740375 0.186745
vt 0.798170 0.542770
vt 0.747546 0.625362
vt 0.719497 0.604783
vt 0.787438 0.535017
vt 0.664734 0.244115
vt 0.629308 0.342132
vt 0.596632 0.326932
vt 0.653324 0.238857
vt 0.655676 0.143919
vt 0.603308 0.054552
vt 0.635480 0.038542
vt 0.666869 0.138297
vt 0.770103 0.500033
vt 0.673722 0.512957
vt 0.672323 0.478196
vt 0.769473 0.486808
vt 0.712971 0.239731
vt 0.767756 0.329551
vt 0.735499 0.345620
vt 0.701746 0.245374
vt 0.871000 0.533077
vt 0.939103 0.599866
vt 0.912799 0.622633
vt 0.861053 0.541815
vt 0.980103 0.449829
vt 0.886597 0.477579
vt 0.715599 0.385146
vt 0.786022 0.451441
vt 0.833932 0.433586
vt 0.841611 0.338183
vt 0.875756 0.344543
vt 0.846949 0.435909
vt 0.739620 0.199285
vt 0.844243 0.213465
vt 0.836694 0.248703
vt 0.737032 0.211579
vt 0.488571 0.349521
vt 0.487981 0.427694
vt 0.262934 0.426225
vt 0.263799 0.348615
vt 0.486670 0.106081
vt 0.488601 0.164239
vt 0.265541 0.161975
vt 0.266230 0.107492
vt 0.488329 0.227630
vt 0.488067 0.293436
vt 0.265029 0.293537
vt 0.265303 0.226779
vt 0.240766 0.944731
vt 0.015667 0.960902
vt 0.014671 0.930056
vt 0.238121 0.914747
vt 0.887124 0.487142
vt 0.982261 0.477998
vt 0.982205 0.508097
vt 0.887586 0.498324
vt 0.628904 0.178050
vt 0.529234 0.146962
vt 0.536449 0.130681
vt 0.630959 0.171095
vt 0.628424 0.187090
vt 0.524323 0.177065
vt 0.529242 0.146956
vt 0.628942 0.177945
vt 0.266329 0.687640
vt 0.491331 0.687701
vt 0.490347 0.744269
vt 0.267029 0.742637
vt 0.266637 0.972575
vt 0.485109 0.980572
vt 0.484912 0.986306
vt 0.266484 0.976935
vt 0.260422 0.690603
vt 0.258261 0.613837
vt 0.266276 0.598123
vt 0.486800 0.933544
vt 0.489315 0.875515
vt 0.495510 0.876127
vt 0.491870 0.937411
vt 0.266929 0.807965
vt 0.266670 0.875519
vt 0.261259 0.875970
vt 0.261470 0.809241
vt 0.262222 0.932935
vt 0.266673 0.929909
vt 0.491443 0.598123
vt 0.498131 0.614637
vt 0.497405 0.692110
vt 0.496203 0.810160
vt 0.489820 0.808837
vt 0.261659 0.743412
vt 0.496478 0.745517
vt 0.796030 0.442680
vt 0.742072 0.362317
vt 0.485437 0.062787
vt 0.266929 0.068032
vt 0.262238 0.973353
vt 0.490757 0.981867
vt 0.227342 0.289980
vt 0.003485 0.282654
vt 0.886586 0.477559
vt 0.980091 0.449817
vt 0.922924 0.933602
vt 0.906660 0.709322
vt 0.242323 0.972952
vt 0.018020 0.991320
vn 0.160375 -0.696036 -0.699820
vn 0.163121 0.683370 -0.711600
vn 0.323740 0.667898 -0.670095
vn 0.315622 -0.688223 -0.653218
vn 0.447981 -0.696219 -0.560839
vn 0.455519 0.683554 -0.570269
vn 0.581683 0.667989 -0.464064
vn 0.567003 -0.688345 -0.452345
vn 0.646535 -0.696219 -0.311838
vn 0.657399 0.683462 -0.317240
vn 0.722007 0.666982 -0.183843
vn 0.702475 -0.689962 -0.174383
vn 0.712424 -0.701437 -0.019745
vn 0.727317 0.685446 -0.033448
vn 0.667562 0.741600 -0.065950
vn 0.665883 -0.743889 -0.056551
vn -0.645436 -0.756981 -0.101749
vn -0.614917 -0.739311 -0.274300
vn -0.619495 0.739952 -0.262062
vn -0.656362 0.745598 -0.115024
vn 0.444227 -0.696524 0.563402
vn 0.451155 0.684744 0.572314
vn 0.322275 0.668172 0.670522
vn 0.314188 -0.688406 0.653706
vn 0.159734 -0.696066 0.699942
vn 0.162420 0.683370 0.711722
vn 0.000000 0.667959 0.744163
vn 0.000000 -0.688314 0.725394
vn -0.159764 -0.696066 0.699973
vn -0.162450 0.683370 0.711753
vn -0.322855 0.667959 0.670461
vn -0.314737 -0.688314 0.653554
vn -0.447645 -0.696036 0.561327
vn -0.455184 0.683370 0.570788
vn -0.581805 0.667959 0.463973
vn -0.567125 -0.688314 0.452254
vn -0.646870 -0.696036 0.311502
vn -0.657765 0.683340 0.316752
vn -0.725516 0.667959 0.165593
vn -0.707205 -0.688314 0.161412
vn -0.717978 -0.696036 0.000000
vn -0.730064 0.683340 0.000000
vn -0.725516 0.667928 -0.165593
vn -0.707205 -0.688314 -0.161412
vn -0.646870 -0.696036 -0.311502
vn -0.657765 0.683340 -0.316752
vn -0.581835 0.667928 -0.463973
vn -0.567125 -0.688314 -0.452254
vn -0.426191 -0.730461 0.533616
vn -0.522172 -0.744102 0.416608
vn -0.529527 0.735557 0.422468
vn -0.434858 0.717215 0.544450
vn -0.161748 0.683218 -0.712058
vn -0.159093 -0.695914 -0.700247
vn -0.314646 -0.688284 -0.653615
vn -0.322794 0.667928 -0.670553
vn -0.447645 -0.696036 -0.561327
vn -0.455184 0.683340 -0.570788
vn -0.152562 -0.730674 0.665426
vn -0.290567 -0.744224 0.601367
vn -0.294656 0.735679 0.609851
vn -0.155644 0.717460 0.678976
vn -0.614917 -0.730552 0.296823
vn -0.652181 -0.743584 0.147282
vn -0.663045 0.734581 0.144017
vn -0.627491 0.717338 0.302744
vn -0.698477 -0.715018 0.028748
vn -0.718497 0.695334 0.015290
vn -0.611438 -0.705710 -0.357830
vn -0.517441 -0.744591 -0.421644
vn -0.530808 0.733573 -0.424329
vn -0.634114 0.687704 -0.353435
vn -0.421949 -0.729362 -0.538469
vn -0.289407 -0.743889 -0.602344
vn -0.293466 0.735405 -0.610767
vn -0.430921 0.715629 -0.549669
vn -0.151921 -0.730644 -0.665609
vn 0.000000 -0.744133 -0.667989
vn 0.000000 0.735588 -0.677389
vn -0.155004 0.717429 -0.679128
vn 0.151921 -0.730674 -0.665578
vn 0.289834 -0.744133 -0.601856
vn 0.293893 0.735588 -0.610309
vn 0.155004 0.717429 -0.679128
vn 0.425642 -0.730674 -0.533769
vn 0.522263 -0.744133 -0.416486
vn 0.529588 0.735618 -0.422346
vn 0.434309 0.717460 -0.544603
vn 0.615101 -0.730674 -0.296213
vn 0.651234 -0.744133 -0.148625
vn 0.660390 0.735618 -0.150700
vn 0.627583 0.717460 -0.302225
vn 0.682699 -0.730674 0.000000
vn 0.651234 -0.744163 0.148625
vn 0.660390 0.735618 0.150700
vn 0.696554 0.717460 0.000000
vn 0.615101 -0.730674 0.296213
vn 0.522263 -0.744133 0.416486
vn 0.529588 0.735618 0.422315
vn 0.627583 0.717460 0.302225
vn 0.151250 -0.730827 0.665548
vn -0.000855 -0.744041 0.668111
vn -0.000885 0.735527 0.677450
vn 0.154302 0.717643 0.679067
vn 0.425642 -0.730674 0.533738
vn 0.289743 -0.744163 0.601825
vn 0.293802 0.735649 0.610309
vn 0.434278 0.717460 0.544603
vn 0.000946 0.668020 -0.744102
vn 0.562609 0.667104 0.488235
vn -0.014557 -0.980071 0.198096
vn -0.667928 0.684286 0.292520
vn -0.023072 0.979705 0.199011
vn -0.675192 -0.679098 0.287912
vn -0.638936 0.766472 0.065065
vn -0.497726 0.789056 0.359996
vn -0.515213 -0.779626 0.355907
vn -0.643574 -0.763390 0.054872
vn -0.382275 0.724021 0.574114
vn -0.530869 0.641469 0.553789
vn -0.522782 -0.661153 0.538072
vn -0.381695 -0.726402 0.571459
vn 0.606372 -0.712485 0.353038
vn 0.619556 0.687857 0.378124
vn 0.549150 -0.691183 0.469741
vn 0.624470 -0.741874 -0.244179
vn 0.631733 0.736534 -0.241615
vn 0.452712 0.775658 -0.439680
vn 0.457350 -0.766015 -0.451643
vn 0.541398 -0.585070 0.603748
vn 0.541246 0.569231 0.618854
vn -0.620930 0.552568 0.555956
vn -0.618946 -0.573290 0.536851
vn 0.756157 0.653279 -0.037507
vn 0.638966 0.641163 -0.424940
vn 0.400647 -0.690298 -0.602435
vn 0.628895 -0.652913 -0.422071
vn 0.748009 -0.661977 -0.046937
vn 0.401624 0.689779 -0.602374
vn 0.000946 -0.688406 -0.725303
s 1
f 1/1/1 2/2/2 3/3/3 4/4/4
f 5/5/5 6/6/6 7/7/7 8/8/8
f 9/9/9 10/10/10 11/11/11 12/12/12
f 13/13/13 14/14/14 15/15/15 16/16/16
f 17/17/17 18/18/18 19/19/19 20/20/20
f 21/21/21 22/22/22 23/23/23 24/24/24
f 25/25/25 26/26/26 27/27/27 28/28/28
f 29/29/29 30/30/30 31/31/31 32/32/32
f 33/33/33 34/34/34 35/35/35 36/36/36
f 37/37/37 38/38/38 39/39/39 40/40/40
f 41/41/41 42/42/42 43/43/43 44/44/44
f 45/45/45 46/46/46 47/47/47 48/48/48
f 49/49/49 50/50/50 51/51/51 52/52/52
f 53/53/53 54/54/54 55/55/55 56/56/56
f 57/57/57 58/58/58 56/56/56 55/55/55
f 59/59/59 60/60/60 61/61/61 62/62/62
f 63/63/63 64/64/64 65/65/65 66/66/66
f 67/67/67 17/17/17 20/20/20 68/68/68
f 69/69/69 70/70/70 71/71/71 72/72/72
f 73/73/73 74/74/74 75/75/75 76/76/76
f 77/77/77 78/78/78 79/79/79 80/80/80
f 81/81/81 82/82/82 83/83/83 84/84/84
f 85/85/85 86/86/86 87/87/87 88/88/88
f 89/89/89 90/90/90 91/91/91 92/92/92
f 93/93/93 94/94/94 95/95/95 96/96/96
f 97/97/97 98/98/98 99/99/99 100/100/100
f 101/101/101 102/102/102 103/103/103 104/104/104
f 105/105/105 106/106/106 107/107/107 108/108/108
f 85/109/85 33/110/33 36/111/36 86/112/86
f 80/113/80 26/114/26 23/115/23 75/116/75
f 67/117/67 13/118/13 16/119/16 17/120/17
f 104/121/104 53/122/53 56/123/56 107/124/107
f 52/125/52 6/126/6 3/127/3 61/128/61
f 59/129/59 1/130/1 4/131/4 60/132/60
f 93/133/93 41/134/41 44/135/44 94/136/94
f 88/137/88 34/138/34 31/139/31 83/140/83
f 73/141/73 21/142/21 24/143/24 74/144/74
f 68/145/68 14/146/14 11/147/11 65/148/65
f 105/149/105 57/150/57 55/151/55 106/152/106
f 62/153/62 2/154/2 109/155/109 103/156/103
f 96/157/96 42/158/42 39/159/39 91/160/91
f 81/161/81 29/162/29 32/163/32 82/164/82
f 76/165/76 22/166/22 110/167/110 71/168/71
f 63/169/63 9/170/9 12/171/12 64/172/64
f 108/173/108 58/174/58 47/175/47 99/176/99
f 89/177/89 37/178/37 40/179/40 90/180/90
f 84/181/84 30/182/30 27/183/27 79/184/79
f 66/185/66 10/186/10 7/187/7 51/188/51
f 97/189/97 45/190/45 48/191/48 98/192/98
f 92/193/92 38/194/38 35/195/35 87/196/87
f 77/197/77 25/198/25 28/199/28 78/200/78
f 17/120/17 16/119/16 111/201/111 18/202/18
f 54/203/54 101/204/101 106/152/106 55/151/55
f 49/205/49 5/206/5 8/207/8 50/208/50
f 100/209/100 46/210/46 43/211/43 95/212/95
f 112/213/112 113/214/113 111/215/111 114/216/114
f 115/217/115 116/218/116 117/219/117 118/220/118
f 119/221/119 120/222/120 121/223/121 122/224/122
f 123/225/123 124/226/124 110/227/110 125/228/125
f 69/229/69 123/230/123 125/231/125 70/232/70
f 19/233/19 113/234/113 15/235/15 20/236/20
f 72/237/72 124/238/124 113/239/113 19/240/19
f 12/12/12 11/11/11 14/14/14 13/13/13
f 64/64/64 67/67/67 68/68/68 65/65/65
f 64/172/64 12/171/12 13/118/13 67/117/67
f 20/236/20 15/235/15 14/146/14 68/145/68
f 126/241/126 127/242/127 128/243/128 129/244/129
f 130/245/130 131/246/131 132/247/132 133/248/133
f 114/249/114 111/250/111 16/251/16 126/241/126
f 134/252/134 135/253/135 116/254/116 115/255/115
f 136/256/136 137/257/137 117/258/117 122/259/122
f 118/260/118 117/258/117 137/257/137 138/261/138
f 127/242/127 15/262/15 113/263/113 112/264/112
f 119/265/119 116/254/116 135/253/135 139/266/139
f 139/266/139 136/256/136 129/244/129 128/243/128
f 138/261/138 137/257/137 135/253/135 134/252/134
f 120/222/120 112/213/112 114/216/114 121/223/121
f 16/251/16 15/262/15 127/242/127 126/241/126
f 121/267/121 114/249/114 126/241/126 129/244/129
f 128/243/128 127/242/127 112/264/112 120/268/120
f 135/253/135 137/257/137 136/256/136 139/266/139
f 130/245/130 138/261/138 134/252/134 131/246/131
f 1/130/1 59/129/59 102/269/102 140/270/140
f 132/271/132 115/217/115 118/220/118 133/272/133
f 120/268/120 119/265/119 139/266/139 128/243/128
f 129/244/129 136/256/136 122/259/122 121/267/121
f 116/218/116 119/221/119 122/224/122 117/219/117
f 50/208/50 8/207/8 9/170/9 63/169/63
f 50/50/50 63/63/63 66/66/66 51/51/51
f 133/273/133 118/260/118 138/261/138 130/245/130
f 4/4/4 3/3/3 6/6/6 5/5/5
f 131/246/131 134/252/134 115/255/115 132/274/132
f 60/132/60 4/131/4 5/206/5 49/205/49
f 61/128/61 3/127/3 2/154/2 62/153/62
f 65/148/65 11/147/11 10/186/10 66/185/66
f 8/8/8 7/7/7 10/10/10 9/9/9
f 94/94/94 97/97/97 100/100/100 95/95/95
f 60/60/60 49/49/49 52/52/52 61/61/61
f 102/102/102 59/59/59 62/62/62 103/103/103
f 51/188/51 7/187/7 6/126/6 52/125/52
f 2/2/2 1/1/1 140/275/140 109/276/109
f 48/48/48 47/47/47 58/58/58 57/57/57
f 109/276/109 140/275/140 54/54/54 53/53/53
f 106/106/106 101/101/101 104/104/104 107/107/107
f 103/156/103 109/155/109 53/122/53 104/121/104
f 90/90/90 93/93/93 96/96/96 91/91/91
f 86/112/86 36/111/36 37/178/37 89/177/89
f 140/270/140 102/269/102 101/204/101 54/203/54
f 98/192/98 48/191/48 57/150/57 105/149/105
f 98/98/98 105/105/105 108/108/108 99/99/99
f 44/44/44 43/43/43 46/46/46 45/45/45
f 107/124/107 56/123/56 58/174/58 108/173/108
f 94/136/94 44/135/44 45/190/45 97/189/97
f 99/176/99 47/175/47 46/210/46 100/209/100
f 90/180/90 40/179/40 41/134/41 93/133/93
f 82/82/82 85/85/85 88/88/88 83/83/83
f 95/212/95 43/211/43 42/158/42 96/157/96
f 86/86/86 89/89/89 92/92/92 87/87/87
f 91/160/91 39/159/39 38/194/38 92/193/92
f 40/40/40 39/39/39 42/42/42 41/41/41
f 74/144/74 24/143/24 25/198/25 77/197/77
f 82/164/82 32/163/32 33/110/33 85/109/85
f 18/277/18 111/278/111 123/230/123 69/229/69
f 36/36/36 35/35/35 38/38/38 37/37/37
f 83/140/83 31/139/31 30/182/30 84/181/84
f 70/232/70 125/231/125 21/142/21 73/141/73
f 32/32/32 31/31/31 34/34/34 33/33/33
f 87/196/87 35/195/35 34/138/34 88/137/88
f 28/28/28 27/27/27 30/30/30 29/29/29
f 78/200/78 28/199/28 29/162/29 81/161/81
f 78/78/78 81/81/81 84/84/84 79/79/79
f 24/24/24 23/23/23 26/26/26 25/25/25
f 74/74/74 77/77/77 80/80/80 75/75/75
f 70/70/70 73/73/73 76/76/76 71/71/71
f 79/184/79 27/183/27 26/114/26 80/113/80
f 75/116/75 23/115/23 22/166/22 76/165/76
f 18/279/18 69/69/69 72/72/72 19/280/19
f 125/228/125 110/227/110 22/22/22 21/21/21
f 71/168/71 110/167/110 124/238/124 72/237/72
f 111/281/111 113/282/113 124/226/124 123/225/123
