# Blender v2.63 (sub 0) OBJ File: ''
# www.blender.org
v 1.759190 -1.646961 -1.238273
v 1.759190 1.646961 -1.238273
v 1.935531 -1.646961 -1.214601
v 1.935531 1.646961 -1.214601
v 2.105096 -1.646961 -1.144494
v 2.105096 1.646961 -1.144494
v 2.261368 -1.646961 -1.030646
v 2.261368 1.646961 -1.030646
v 2.363583 -1.646961 -0.877433
v 2.363583 1.646961 -0.877433
v 2.406478 -1.646961 -0.690742
v 2.406478 1.646961 -0.690742
v 2.427442 -1.646961 -0.477749
v 2.427442 1.646961 -0.477749
v 2.444121 -1.646961 -0.246637
v 2.444121 1.646961 -0.246637
v 2.454537 -1.646961 -0.006288
v 2.461489 1.646961 -0.006288
v 2.444121 -1.646961 0.234060
v 2.444121 1.646961 0.234060
v 2.427442 -1.646961 0.465172
v 2.427442 1.646961 0.465172
v 2.406478 -1.646961 0.678166
v 2.406478 1.646961 0.678166
v 2.363583 -1.646961 0.864857
v 2.363583 1.646961 0.864857
v 2.261368 -1.646961 1.018070
v 2.261368 1.646961 1.018070
v 2.105096 -1.646961 1.131918
v 2.105096 1.646961 1.131918
v 1.935531 -1.646961 1.202025
v 1.935531 1.646961 1.202025
v 1.759190 -1.646961 1.225697
v 1.759190 1.646961 1.225697
v -1.734097 -1.646961 -1.238273
v -1.734097 1.646961 -1.238273
v -1.910439 -1.646961 -1.214601
v -1.910439 1.646961 -1.214601
v -2.080003 -1.646961 -1.144494
v -2.080003 1.646961 -1.144494
v -2.236275 -1.646961 -1.030646
v -2.236275 1.646961 -1.030646
v -2.338490 -1.646961 -0.877433
v -2.338490 1.646961 -0.877433
v -2.381385 -1.646961 -0.690742
v -2.381385 1.646961 -0.690742
v -2.402349 -1.646961 -0.477749
v -2.402349 1.646961 -0.477749
v -2.419028 -1.646961 -0.246637
v -2.419028 1.646961 -0.246637
v -2.429445 -1.646961 -0.006288
v -2.436396 1.646961 -0.006288
v -2.419029 -1.646961 0.234060
v -2.419029 1.646961 0.234060
v -2.402349 -1.646961 0.465172
v -2.402349 1.646961 0.465172
v -2.381385 -1.646961 0.678166
v -2.381385 1.646961 0.678166
v -2.338490 -1.646961 0.864857
v -2.338490 1.646961 0.864857
v -2.236275 -1.646961 1.018070
v -2.236275 1.646961 1.018070
v -2.080003 -1.646961 1.131918
v -2.080003 1.646961 1.131918
v -1.910438 -1.646961 1.202025
v -1.910438 1.646961 1.202025
v -1.734097 -1.646961 1.225697
v -1.734097 1.646961 1.225697
v 0.010762 -1.646961 -1.245225
v 0.010762 1.646961 -1.245225
v 0.010762 -1.646961 1.218745
v 0.010762 1.646961 1.218745
vt 0.522445 0.336741
vt 0.522444 0.000004
vt 0.540633 0.000004
vt 0.540635 0.336741
vt 0.559390 0.000004
vt 0.559393 0.336740
vt 0.579155 0.000004
vt 0.579158 0.336740
vt 0.597984 0.000003
vt 0.597987 0.336740
vt 0.617566 0.000003
vt 0.617570 0.336740
vt 0.639445 0.000002
vt 0.639450 0.336740
vt 0.663133 0.000002
vt 0.663138 0.336739
vt 0.687767 0.000000
vt 0.687732 0.336739
vt 0.687733 0.336742
vt 0.687774 0.673478
vt 0.663139 0.673478
vt 0.663139 0.336742
vt 0.639451 0.673478
vt 0.639451 0.336742
vt 0.617571 0.673478
vt 0.617572 0.336742
vt 0.597989 0.673478
vt 0.597989 0.336742
vt 0.579160 0.673478
vt 0.579160 0.336742
vt 0.559395 0.673478
vt 0.559395 0.336742
vt 0.540637 0.673478
vt 0.540637 0.336742
vt 0.522448 0.673478
vt 0.522448 0.336742
vt 0.343705 0.673478
vt 0.343705 0.336742
vt 0.343703 0.336741
vt 0.343702 0.000004
vt 0.165325 0.336741
vt 0.147135 0.336741
vt 0.147136 0.000004
vt 0.165325 0.000004
vt 0.128377 0.336741
vt 0.128379 0.000004
vt 0.108612 0.336741
vt 0.108614 0.000003
vt 0.089783 0.336741
vt 0.089785 0.000003
vt 0.070200 0.336740
vt 0.070203 0.000002
vt 0.048320 0.336740
vt 0.048323 0.000002
vt 0.024632 0.336740
vt 0.024635 0.000001
vt 0.000038 0.336740
vt 0.000000 0.000000
vt 0.000042 0.336741
vt 0.024636 0.336741
vt 0.024635 0.673478
vt 0.000000 0.673478
vt 0.048324 0.336741
vt 0.048324 0.673478
vt 0.070204 0.336741
vt 0.070203 0.673478
vt 0.089786 0.336741
vt 0.089786 0.673478
vt 0.108615 0.336741
vt 0.108615 0.673478
vt 0.128381 0.336741
vt 0.128380 0.673478
vt 0.147139 0.336741
vt 0.147138 0.673478
vt 0.165328 0.336741
vt 0.165327 0.673478
vt 0.428928 0.674247
vt 0.249546 0.673478
vt 0.071838 0.674131
vt 0.053810 0.676545
vt 0.446978 0.676676
vt 0.036474 0.683706
vt 0.464316 0.683851
vt 0.020494 0.695339
vt 0.480288 0.695496
vt 0.010039 0.710998
vt 0.490733 0.711163
vt 0.005648 0.730082
vt 0.495111 0.730250
vt 0.003497 0.751856
vt 0.497247 0.752025
vt 0.001784 0.775482
vt 0.498944 0.775653
vt 0.000000 0.800052
vt 0.500711 0.800225
vt 0.001767 0.824624
vt 0.498927 0.824796
vt 0.003464 0.848251
vt 0.497214 0.848423
vt 0.005599 0.870026
vt 0.495063 0.870197
vt 0.009978 0.889113
vt 0.490671 0.889281
vt 0.020422 0.904780
vt 0.480215 0.904941
vt 0.036393 0.916424
vt 0.464236 0.916574
vt 0.053726 0.923597
vt 0.446893 0.923737
vt 0.071754 0.926024
vt 0.252547 0.925372
vt 0.429076 0.926124
vt 0.749502 0.673478
vt 0.928884 0.674185
vt 0.571795 0.674192
vt 0.553768 0.676612
vt 0.946935 0.676608
vt 0.536434 0.683779
vt 0.964276 0.683777
vt 0.520458 0.695418
vt 0.980252 0.695416
vt 0.510009 0.711081
vt 0.990702 0.711080
vt 0.505624 0.730167
vt 0.995087 0.730166
vt 0.503481 0.751941
vt 0.997230 0.751940
vt 0.501776 0.775568
vt 0.998935 0.775567
vt 0.500711 0.800139
vt 1.000000 0.800139
vt 0.501776 0.824710
vt 0.998935 0.824710
vt 0.503481 0.848336
vt 0.997230 0.848337
vt 0.505624 0.870111
vt 0.995087 0.870112
vt 0.510009 0.889196
vt 0.990702 0.889197
vt 0.520458 0.904859
vt 0.980252 0.904861
vt 0.536434 0.916498
vt 0.964276 0.916500
vt 0.553768 0.923665
vt 0.946936 0.923669
vt 0.571797 0.926085
vt 0.752589 0.925371
vt 0.929119 0.926062
vn 0.133047 0.000000 -0.991110
vn 0.382084 0.000000 -0.924128
vn 0.588833 0.000000 -0.808255
vn 0.831867 0.000000 -0.554976
vn 0.974605 0.000000 -0.223929
vn 0.995191 0.000000 -0.097952
vn 0.997406 0.000000 -0.071982
vn 0.998333 -0.001053 -0.057704
vn 0.998333 -0.001053 0.057703
vn 0.997406 0.000000 0.071982
vn 0.995191 0.000000 0.097953
vn 0.974605 0.000000 0.223929
vn 0.831867 0.000000 0.554975
vn 0.588834 0.000000 0.808254
vn 0.382083 0.000000 0.924128
vn 0.133047 0.000000 0.991110
vn -0.003976 0.000000 0.999992
vn 0.003976 0.000000 -0.999992
vn -0.133047 0.000000 -0.991110
vn -0.382083 0.000000 -0.924128
vn -0.588833 0.000000 -0.808255
vn -0.831867 0.000000 -0.554976
vn -0.974605 0.000000 -0.223929
vn -0.995191 0.000000 -0.097952
vn -0.997406 0.000000 -0.071982
vn -0.998333 -0.001053 -0.057704
vn -0.998333 -0.001053 0.057703
vn -0.997406 0.000000 0.071982
vn -0.995191 0.000000 0.097953
vn -0.974605 0.000000 0.223929
vn -0.831867 0.000000 0.554975
vn -0.588834 0.000000 0.808254
vn -0.382082 0.000000 0.924128
vn -0.133047 0.000000 0.991110
vn 0.003984 0.000000 0.999992
vn -0.003984 0.000000 -0.999992
vn -0.000000 1.000000 0.000000
vn 0.000000 -1.000000 -0.000000
s off
f 1/1/1 2/2/1 4/3/1 3/4/1
f 3/4/2 4/3/2 6/5/2 5/6/2
f 5/6/3 6/5/3 8/7/3 7/8/3
f 7/8/4 8/7/4 10/9/4 9/10/4
f 9/10/5 10/9/5 12/11/5 11/12/5
f 11/12/6 12/11/6 14/13/6 13/14/6
f 13/14/7 14/13/7 16/15/7 15/16/7
f 15/16/8 16/15/8 18/17/8 17/18/8
f 17/19/9 18/20/9 20/21/9 19/22/9
f 19/22/10 20/21/10 22/23/10 21/24/10
f 21/24/11 22/23/11 24/25/11 23/26/11
f 23/26/12 24/25/12 26/27/12 25/28/12
f 25/28/13 26/27/13 28/29/13 27/30/13
f 27/30/14 28/29/14 30/31/14 29/32/14
f 29/32/15 30/31/15 32/33/15 31/34/15
f 31/34/16 32/33/16 34/35/16 33/36/16
f 72/37/17 71/38/17 33/36/17 34/35/17
f 2/2/18 1/1/18 69/39/18 70/40/18
f 35/41/19 37/42/19 38/43/19 36/44/19
f 37/42/20 39/45/20 40/46/20 38/43/20
f 39/45/21 41/47/21 42/48/21 40/46/21
f 41/47/22 43/49/22 44/50/22 42/48/22
f 43/49/23 45/51/23 46/52/23 44/50/23
f 45/51/24 47/53/24 48/54/24 46/52/24
f 47/53/25 49/55/25 50/56/25 48/54/25
f 49/55/26 51/57/26 52/58/26 50/56/26
f 51/59/27 53/60/27 54/61/27 52/62/27
f 53/60/28 55/63/28 56/64/28 54/61/28
f 55/63/29 57/65/29 58/66/29 56/64/29
f 57/65/30 59/67/30 60/68/30 58/66/30
f 59/67/31 61/69/31 62/70/31 60/68/31
f 61/69/32 63/71/32 64/72/32 62/70/32
f 63/71/33 65/73/33 66/74/33 64/72/33
f 65/73/34 67/75/34 68/76/34 66/74/34
f 72/37/35 68/76/35 67/75/35 71/38/35
f 69/39/36 35/41/36 36/44/36 70/40/36
f 2/77/37 70/78/37 36/79/37
f 2/77/37 36/79/37 38/80/37
f 4/81/37 2/77/37 38/80/37
f 4/81/37 38/80/37 40/82/37
f 6/83/37 4/81/37 40/82/37
f 6/83/37 40/82/37 42/84/37
f 6/83/37 42/84/37 8/85/37
f 42/84/37 44/86/37 8/85/37
f 44/86/37 10/87/37 8/85/37
f 44/86/37 46/88/37 10/87/37
f 46/88/37 12/89/37 10/87/37
f 46/88/37 48/90/37 12/89/37
f 48/90/37 14/91/37 12/89/37
f 48/90/37 50/92/37 14/91/37
f 50/92/37 16/93/37 14/91/37
f 50/92/37 52/94/37 16/93/37
f 52/94/37 18/95/37 16/93/37
f 52/94/37 54/96/37 18/95/37
f 54/96/37 20/97/37 18/95/37
f 54/96/37 56/98/37 20/97/37
f 56/98/37 22/99/37 20/97/37
f 56/98/37 58/100/37 22/99/37
f 58/100/37 24/101/37 22/99/37
f 58/100/37 60/102/37 24/101/37
f 60/102/37 26/103/37 24/101/37
f 60/102/37 62/104/37 26/103/37
f 62/104/37 28/105/37 26/103/37
f 62/104/37 64/106/37 28/105/37
f 64/106/37 30/107/37 28/105/37
f 64/106/37 66/108/37 30/107/37
f 66/108/37 32/109/37 30/107/37
f 66/108/37 68/110/37 32/109/37
f 68/110/37 72/111/37 32/109/37
f 72/111/37 34/112/37 32/109/37
f 69/113/38 1/114/38 35/115/38
f 1/114/38 37/116/38 35/115/38
f 1/114/38 3/117/38 37/116/38
f 3/117/38 39/118/38 37/116/38
f 3/117/38 5/119/38 39/118/38
f 5/119/38 41/120/38 39/118/38
f 5/119/38 7/121/38 41/120/38
f 7/121/38 43/122/38 41/120/38
f 7/121/38 9/123/38 43/122/38
f 9/123/38 45/124/38 43/122/38
f 9/123/38 11/125/38 45/124/38
f 11/125/38 47/126/38 45/124/38
f 11/125/38 13/127/38 47/126/38
f 13/127/38 49/128/38 47/126/38
f 13/127/38 15/129/38 49/128/38
f 15/129/38 51/130/38 49/128/38
f 15/129/38 17/131/38 51/130/38
f 17/131/38 53/132/38 51/130/38
f 17/131/38 19/133/38 53/132/38
f 19/133/38 55/134/38 53/132/38
f 19/133/38 21/135/38 55/134/38
f 21/135/38 57/136/38 55/134/38
f 21/135/38 23/137/38 57/136/38
f 23/137/38 59/138/38 57/136/38
f 23/137/38 25/139/38 59/138/38
f 25/139/38 61/140/38 59/138/38
f 25/139/38 27/141/38 61/140/38
f 27/141/38 63/142/38 61/140/38
f 27/141/38 29/143/38 63/142/38
f 29/143/38 65/144/38 63/142/38
f 29/143/38 31/145/38 65/144/38
f 31/145/38 67/146/38 65/144/38
f 31/145/38 71/147/38 67/146/38
f 31/145/38 33/148/38 71/147/38
